<svg style="display: none;" fill="none" xmlns="http://www.w3.org/2000/svg">

<!-- Social icons -->

  <symbol viewBox="0 0 11 21" id="facebook">
    <path d="M7.49 20.81H2.13v-9.67H0V6.35h2.07c-.16-2.17.23-3.75 1.2-4.83A4.88 4.88 0 014.9.4 5.08 5.08 0 016.87 0h3.75v4.61H7.67a4.7 4.7 0 00-.2 1.74h3.14v4.79H7.47l.02 9.67zM3.32 19.7h2.97V10h3.14V7.5H6.29v-.57c0-1.5 0-2.84.78-3.35l.15-.1h2.2V1.14H6.9a3.82 3.82 0 00-1.5.28c-.47.2-.9.48-1.24.84-.79.92-1.11 2.47-.87 4.6l.08.63h-2.2V10h2.15v9.68z"/>
  </symbol>

  <symbol viewBox="0 0 31 16" id="vk">
    <path d="M23.95 15.78a4.05 4.05 0 01-2.08-.63 10.17 10.17 0 01-1.78-1.53c-.44-.44-1.17-1.18-1.45-1.18s-.48.92-.47 1.57a1.75 1.75 0 01-.47 1.2 2.26 2.26 0 01-1.22.5h-1.92a11.32 11.32 0 01-7.43-3C3.45 9.36.29 2.92.16 2.64A1.34 1.34 0 01.3 1.15 2.07 2.07 0 011.67.67h4.2c.33.05.66.17.95.35.27.18.49.43.63.73a22.09 22.09 0 001.48 2.67c1.3 2 1.89 2.46 2.1 2.56.23-.94.3-1.91.19-2.87A2.7 2.7 0 0011 2.83a1.33 1.33 0 00-.77-.3l-.73-.68C9.37 1.19 10.1.62 10.6.4a8.69 8.69 0 013.15-.38h.7a9.11 9.11 0 012.16.2c1.7.36 1.64 1.73 1.57 3.3 0 .47-.05 1-.05 1.63v.48c-.04.43-.01.87.09 1.3a9.09 9.09 0 002.07-2.48 20.4 20.4 0 001.52-2.8 1.58 1.58 0 011.6-.95h4.28a2 2 0 01.38 0c1 0 1.59.29 1.83.85s.17 1.66-2.36 4.6l-1 1.14a7.34 7.34 0 00-1.24 1.59c.38.43.8.81 1.28 1.14a14.3 14.3 0 013 3.07 1.6 1.6 0 01.26 1.68 2.3 2.3 0 01-1.88 1l-3.8.05-.22-.04zm-5.31-4.84c.9 0 1.68.79 2.5 1.62.45.49.96.92 1.5 1.3a2.51 2.51 0 001.4.42h.1l3.8-.05c.2-.01.38-.06.55-.14l-.1-.16a13.22 13.22 0 00-2.68-2.72c-1.2-1-1.8-1.47-1.87-2.24-.07-.77.49-1.44 1.6-2.71l1-1.11A10.73 10.73 0 0028.5 2.2a5.66 5.66 0 00-.67 0h-4.37a.55.55 0 00-.24 0 20.5 20.5 0 01-1.65 3.05c-1.9 2.82-2.78 3.2-3.41 3.2a1.19 1.19 0 01-.56-.14c-1-.57-1-1.84-.94-2.76v-.43c0-.65 0-1.21.05-1.7.08-1.67 0-1.68-.38-1.77a8.56 8.56 0 00-1.86-.16h-.7a13 13 0 00-1.9.1c.1.07.19.15.26.25.4.65.61 1.4.59 2.18.13 1.65.06 3.8-1 4.32a1.38 1.38 0 01-.6.13c-.93 0-1.85-.88-3.42-3.26a23.42 23.42 0 01-1.61-2.85L6 2.26a1.21 1.21 0 00-.32-.11H1.62C2.2 3.37 5 8.77 8.14 11.6a10 10 0 006.42 2.63h1.85a1 1 0 00.27-.1v-.1c0-.26 0-2.6 1.58-3l.38-.1z"/>
  </symbol>

  <symbol viewBox="0 0 24 24" id="instagram">
    <path d="M17.28 2.4a4.33 4.33 0 014.32 4.32v10.56a4.33 4.33 0 01-4.32 4.32H6.72a4.33 4.33 0 01-4.31-4.32V6.72A4.33 4.33 0 016.72 2.4h10.56zm0-1.44H6.72A5.76 5.76 0 00.96 6.72v10.56a5.76 5.76 0 005.76 5.76h10.56a5.76 5.76 0 005.76-5.76V6.72A5.76 5.76 0 0017.28.96z"/>
    <path d="M12.01 7.76A4.25 4.25 0 117.76 12 4.24 4.24 0 0112 7.76zm0-1.44A5.7 5.7 0 1017.69 12a5.68 5.68 0 00-5.68-5.7zm5.9 1.1a1.29 1.29 0 100-2.58 1.29 1.29 0 000 2.57z"/>
  </symbol>

  <!-- Copyright icon -->

  <symbol viewBox="0 0 27 34" id="htmlacademy">
    <path d="M13.64.1L13.5.1 0 1.46v24.1l13.5 7.83L27 25.57V1.47L13.64.1zm11.6 24.49l-11.74 6.8-11.73-6.8v-9.88l11.68 6.77.02 1.23-8.02-4.64v1.2l8.04 4.7.02 1.27-8.05-4.66v1.2l8.04 4.7 8.12-4.73v-5.1l3.62-2.1v10.04zm0-11.33L22 15.11l-1.48.85-7.06-4.1-.01 1.2 6.04 3.5-.06.03-.13.08-.86.48-4.98-2.9-.01 1.2 3.93 2.29-.93.6h-.02l-2.97-1.7-.01 1.2 1.94 1.11-1.98 1.17L1.8 13.38l11.64-6.81 11.8 6.7zm0-1.2L13.43 5.3 1.77 12.05V3.02l11.73-1.2 11.73 1.2v9.05z"/>
  </symbol>

<!-- Transport icons -->

  <symbol viewBox="0 0 23 22" id="icon-plane">
    <g clip-path="url(#clip0)">
      <path d="M18.53 1.18c-.8.18-1.6.36-1.9.86L14.28 6.4 1.8 9.21l-.5 1.4 9.56.85-1.62 3.8-3.62.8-.91 1.5 2.61.26.3 1.22c.13.43.6.72 1 .63l1.21-.27 1.4 2.25.91-1.49-.9-3.65 2.63-3.16 5.01 8.3 1.01-1.08L16.8 7.99l2.83-4.06c.3-.5.1-1.3-.1-2.12-.1-.4-.6-.72-1-.63z"/>
    </g>
    <defs>
      <clipPath id="clip0"><path fill="#fff" d="M0 0h23v22H0z"/></clipPath>
    </defs>
  </symbol>

  <symbol viewBox="0 0 18 20" id="icon-bus">
    <g clip-path="url(#clip0)">
      <path d="M4.5 13.57c0-.4-.15-.73-.44-1-.3-.29-.64-.43-1.06-.43-.41 0-.77.14-1.06.42-.3.28-.44.62-.44 1.01 0 .4.15.73.44 1.01.3.28.65.42 1.06.42.42 0 .77-.14 1.06-.42.3-.28.44-.61.44-1zm12 0c0-.4-.15-.73-.44-1-.3-.29-.65-.43-1.06-.43-.42 0-.77.14-1.06.42-.3.28-.44.62-.44 1.01 0 .4.14.73.44 1.01.29.28.64.42 1.06.42.41 0 .76-.14 1.06-.42.29-.28.44-.61.44-1zm-.54-4.42l-.85-4.28a.74.74 0 00-.74-.58H3.63a.74.74 0 00-.74.58l-.84 4.28c-.04.22.02.42.17.6.14.16.33.25.57.25h12.44c.23 0 .42-.09.57-.26.15-.17.2-.37.17-.59zM13.3 2.32a.5.5 0 00-.16-.38.56.56 0 00-.4-.15h-7.5a.56.56 0 00-.4.15.5.5 0 00-.16.38c0 .15.05.28.16.38.11.1.24.16.4.16h7.5c.15 0 .29-.05.4-.16a.5.5 0 00.16-.38zm4.69 8.1v6.72h-1.5v1.43c0 .4-.15.73-.44 1.01-.3.28-.65.42-1.06.42-.42 0-.77-.14-1.06-.42-.3-.28-.44-.61-.44-1v-1.44h-9v1.43c0 .4-.15.73-.44 1.01-.3.28-.64.42-1.06.42-.41 0-.77-.14-1.06-.42-.3-.28-.44-.61-.44-1v-1.44H0v-6.73c0-.83.1-1.66.3-2.49l1.2-5.06c.07-.58.45-1.1 1.14-1.53.7-.44 1.6-.77 2.7-1C6.44.11 7.66 0 9 0c1.33 0 2.55.11 3.66.33 1.1.23 2 .56 2.7 1 .69.44 1.07.95 1.14 1.53l1.23 5.06c.18.76.27 1.6.27 2.5z"/>
    </g>
    <defs>
      <clipPath id="clip0"><path fill="#fff" d="M0 0h18v20H0z"/></clipPath>
    </defs>
  </symbol>

  <symbol viewBox="0 0 25 25" id="icon-bycicle">
    <path d="M18.95 21.88a4.5 4.5 0 110-8.99 4.5 4.5 0 010 8.98zm0-7.43a2.93 2.93 0 100 5.86 2.93 2.93 0 000-5.86zM6.05 21.88a4.5 4.5 0 110-8.99 4.5 4.5 0 010 8.98zm0-7.43a2.93 2.93 0 100 5.86 2.93 2.93 0 000-5.86zM15.63 6.25a1.56 1.56 0 001.56-1.57 1.54 1.54 0 00-2.15-1.44 1.56 1.56 0 00.59 3.01z"/>
    <path d="M17.95 9.38H15.8a.2.2 0 01-.17-.1l-1.55-2.85a1.51 1.51 0 00-2.41-.38L8.27 9.5c-.29.3-.45.69-.46 1.1 0 .85.62 1.15.9 1.32 1.4.8 2.38 1.39 2.91 1.71a.2.2 0 01.1.17v3.37c0 .43.32.79.74.8a.78.78 0 00.82-.77v-4.2a.78.78 0 00-.32-.64l-1.81-1.3a.2.2 0 01-.03-.29l2.05-2.19a.2.2 0 01.32.04l1.06 1.93a.78.78 0 00.68.4h2.74a.78.78 0 00.78-.82.8.8 0 00-.8-.74z"/>
  </symbol>

  <symbol viewBox="0 0 22 24" id="icon-run">
    <path d="M15.45 6c1 0 1.82-.9 1.82-2s-.81-2-1.82-2c-1 0-1.81.9-1.81 2s.81 2 1.81 2zM14.34 10.97c.21.34.51.6.86.75.35.15.73.18 1.1.08l3.01-.83-.44-1.94-3.01.83-1.26-2.07a1.83 1.83 0 00-1.15-.85l-3.5-.77c-.4-.09-.8-.03-1.16.16-.35.2-.64.51-.82.9l-1.51 3.32 1.63.9 1.5-3.32 1.8.4L6.75 17H2.73v2h4.03a1.8 1.8 0 001.56-.97l1.74-3.2 4.7 1.04 1.65 5.45 1.72-.64-1.65-5.45c-.1-.33-.28-.63-.52-.86-.24-.24-.53-.4-.84-.46l-2.77-.61 1.61-2.96.38.63z"/>
  </symbol>

  <!-- Mail + Phone -->
  <symbol viewBox="0 0 24 25" id="icon-mail" fill="currentColor">
    <path fill-rule="evenodd" clip-rule="evenodd" d="M19.14 16.47L14.8 12.5l4.33-3.97-.6-.63-6.29 5.77-6.3-5.77-.59.63L9.7 12.5l-4.33 3.97.6.63 4.37-4.01 1.92 1.75 1.92-1.75 4.38 4 .59-.62zM4.58 6.25c-.81 0-1.47.7-1.47 1.56v9.38c0 .86.65 1.56 1.47 1.56h15.34c.81 0 1.47-.7 1.47-1.56V7.81c0-.86-.65-1.56-1.47-1.56H4.58z"/>
  </symbol>

  <symbol viewBox="0 0 19 17" id="icon-phone" fill="currentColor">
    <path fill-rule="evenodd" clip-rule="evenodd" d="M9.5 1.09c-2.8 0-5.6.47-6.62 1.41-.84.78-1.12 2.16-1.22 3.04l-.01.12c0 .34.3.62.65.62l2.57-.2h.07c.35-.02.64-.29.64-.63V4.24c0-.38.32-.68.72-.68h6.4c.4 0 .72.3.72.68v1.21c0 .34.29.61.64.62l.07.01 2.57.2c.36 0 .65-.28.65-.62l-.01-.12c-.1-.88-.38-2.26-1.22-3.04C15.1 1.56 12.3 1.1 9.5 1.1zm0 8.03c-.72 0-1.3.55-1.3 1.23 0 .69.58 1.24 1.3 1.24.72 0 1.3-.55 1.3-1.24 0-.68-.58-1.23-1.3-1.23zm-.98-2.78v-.77a.8.8 0 00-.82-.78.8.8 0 00-.82.78v.77l-4.4 4.45c-.31.28-.5.67-.5 1.1v1.24c0 .69.58 1.24 1.3 1.24h.33v.77c0 .43.37.77.82.77a.8.8 0 00.82-.77v-.77h8.5v.77c0 .43.37.77.82.77a.8.8 0 00.82-.77v-.77h.32c.73 0 1.31-.55 1.31-1.24V11.9c0-.43-.19-.82-.5-1.1l-4.4-4.45v-.77a.8.8 0 00-.82-.78.8.8 0 00-.82.78v.77H8.52zm.98 1.54c1.45 0 2.62 1.1 2.62 2.47a2.55 2.55 0 01-2.62 2.47 2.55 2.55 0 01-2.62-2.47A2.55 2.55 0 019.5 7.88z"/>
  </symbol>

  <!-- Likes -->
  <symbol viewBox="0 0 20 20" id="icon-like-stroke">
    <path fill-rule="evenodd" clip-rule="evenodd" d="M10 8.12l1.12-2.34a7.7 7.7 0 011.44-2.1A3.43 3.43 0 0115 2.56a3.8 3.8 0 013.75 3.84c0 1.59-.7 2.7-2.34 4.42-.42.44-.9.91-1.43 1.44A67.62 67.62 0 0010 17.59a67.62 67.62 0 00-4.98-5.33c-.53-.53-1.01-1-1.43-1.44C1.94 9.11 1.25 8 1.25 6.4A3.8 3.8 0 015 2.56c.97 0 1.77.46 2.44 1.12a7.7 7.7 0 011.44 2.1L10 8.12zm.49 10.9a.65.65 0 01-.49.23.62.62 0 01-.49-.24c-2-2.5-3.81-4.28-5.3-5.75C1.63 10.7 0 9.1 0 6.4a5.07 5.07 0 015-5.15c2 0 3.4 1.38 4.26 2.64.32.48.57.94.74 1.3.22-.45.47-.89.74-1.3C11.6 2.63 13 1.25 15 1.25c2.76 0 5 2.3 5 5.15 0 2.71-1.63 4.31-4.2 6.86-1.5 1.47-3.3 3.26-5.31 5.75z"/>
  </symbol>

  <symbol viewBox="0 0 20 20" id="icon-like-fill">
  <path d="M5 1.25c2.76 0 5 2.2 5 4.9 0-2.7 2.24-4.9 5-4.9s5 2.2 5 4.9c0 4.08-4.04 5.52-9.51 12.01a.64.64 0 01-.98 0C4.04 11.66 0 10.23 0 6.15c0-2.7 2.24-4.9 5-4.9z"/>
  </symbol>
</svg>
