<svg xmlns="http://www.w3.org/2000/svg" xmlns:xlink="http://www.w3.org/1999/xlink"><symbol id="facebook" viewBox="0 0 11 21"><path d="M7.488 20.813H2.129v-9.675H0V6.352h2.066c-.157-2.168.236-3.75 1.195-4.83A4.879 4.879 0 014.896.397 5.078 5.078 0 016.867 0h3.756v4.612H7.669a4.7 4.7 0 00-.197 1.74h3.143v4.785H7.472l.016 9.675zm-4.172-1.125h2.97v-9.675h3.143V7.5H6.286v-.57c0-1.5 0-2.842.785-3.345l.15-.098h2.208V1.125h-2.53a3.821 3.821 0 00-1.497.284c-.472.194-.897.48-1.246.841-.785.922-1.107 2.468-.864 4.605l.079.622H1.179v2.535h2.137v9.675z"/></symbol><symbol id="htmlacademy" viewBox="0 0 27 34"><path d="M13.643.101L13.5.086 0 1.464v24.102l13.5 7.823L27 25.566V1.464L13.643.101zM25.234 24.59l-11.734 6.8-11.734-6.8v-9.88l11.685 6.774.02 1.228-8.017-4.646-.011 1.2 8.046 4.71.02 1.26-8.045-4.66-.01 1.2 8.046 4.71 8.124-4.734v-5.103l3.62-2.105-.01 10.046zm0-11.327l-3.22 1.842-1.482.857-7.065-4.101-.011 1.2 6.04 3.5-.053.03-.13.074-.86.482-4.986-2.888-.011 1.2 3.936 2.28-.933.598-.021.012-2.971-1.706-.011 1.2 1.947 1.11-1.988 1.163-11.618-6.731 11.638-6.815 11.8 6.693zm0-1.2L13.44 5.288 1.766 12.055v-9.04l11.734-1.2 11.734 1.2v9.047z"/></symbol><symbol id="icon-bicycle" viewBox="0 0 25 25">
<path d="M18.9453 21.875C18.0568 21.875 17.1883 21.6115 16.4496 21.1179C15.7109 20.6243 15.1351 19.9227 14.7951 19.1019C14.4551 18.2811 14.3661 17.3778 14.5394 16.5064C14.7128 15.635 15.1406 14.8346 15.7689 14.2064C16.3971 13.5781 17.1975 13.1503 18.0689 12.9769C18.9403 12.8036 19.8436 12.8926 20.6644 13.2326C21.4852 13.5726 22.1868 14.1484 22.6804 14.8871C23.174 15.6258 23.4375 16.4943 23.4375 17.3828C23.4362 18.5738 22.9625 19.7157 22.1203 20.5578C21.2782 21.4 20.1363 21.8737 18.9453 21.875ZM18.9453 14.4531C18.3659 14.4531 17.7995 14.6249 17.3177 14.9469C16.8359 15.2688 16.4604 15.7263 16.2386 16.2617C16.0169 16.797 15.9589 17.3861 16.0719 17.9544C16.185 18.5227 16.464 19.0447 16.8737 19.4544C17.2834 19.8641 17.8055 20.1432 18.3738 20.2562C18.9421 20.3692 19.5311 20.3112 20.0665 20.0895C20.6018 19.8678 21.0593 19.4922 21.3813 19.0105C21.7032 18.5287 21.875 17.9623 21.875 17.3828C21.8741 16.6061 21.5651 15.8614 21.0159 15.3122C20.4667 14.763 19.722 14.454 18.9453 14.4531Z"/>
<path d="M6.05469 21.875C5.16622 21.875 4.2977 21.6115 3.55896 21.1179C2.82023 20.6243 2.24445 19.9227 1.90445 19.1019C1.56445 18.2811 1.47549 17.3778 1.64882 16.5064C1.82215 15.635 2.24999 14.8346 2.87823 14.2064C3.50648 13.5781 4.30691 13.1503 5.17831 12.9769C6.04971 12.8036 6.95294 12.8926 7.77378 13.2326C8.59461 13.5726 9.2962 14.1484 9.78981 14.8871C10.2834 15.6258 10.5469 16.4943 10.5469 17.3828C10.5456 18.5738 10.0719 19.7157 9.22972 20.5578C8.38755 21.4 7.24569 21.8737 6.05469 21.875ZM6.05469 14.4531C5.47525 14.4531 4.90883 14.6249 4.42704 14.9469C3.94526 15.2688 3.56975 15.7263 3.34801 16.2617C3.12627 16.797 3.06825 17.3861 3.1813 17.9544C3.29434 18.5227 3.57336 19.0447 3.98309 19.4544C4.39281 19.8641 4.91483 20.1432 5.48314 20.2562C6.05144 20.3692 6.6405 20.3112 7.17583 20.0895C7.71116 19.8678 8.16872 19.4922 8.49064 19.0105C8.81255 18.5287 8.98438 17.9623 8.98438 17.3828C8.98347 16.6061 8.67452 15.8614 8.12529 15.3122C7.57607 14.763 6.83141 14.454 6.05469 14.4531Z"/>
<path d="M15.625 6.25005C15.8308 6.25076 16.0347 6.21067 16.2249 6.1321C16.4151 6.05352 16.5879 5.93802 16.7332 5.79227C16.8785 5.64651 16.9934 5.47341 17.0714 5.28295C17.1494 5.09249 17.1889 4.88847 17.1875 4.68267C17.1898 4.4779 17.1512 4.27473 17.0741 4.08504C16.9969 3.89535 16.8827 3.72295 16.7381 3.57792C16.5935 3.43289 16.4215 3.31814 16.232 3.24038C16.0426 3.16262 15.8395 3.12341 15.6348 3.12505C15.4296 3.12441 15.2263 3.16419 15.0365 3.24212C14.8466 3.32005 14.674 3.4346 14.5285 3.57924C14.3829 3.72388 14.2673 3.89577 14.1882 4.0851C14.1091 4.27442 14.068 4.47748 14.0674 4.68267C14.0667 4.88786 14.1065 5.09116 14.1845 5.28098C14.2624 5.4708 14.3769 5.64341 14.5216 5.78895C14.6662 5.9345 14.8381 6.05013 15.0274 6.12924C15.2168 6.20836 15.4198 6.24941 15.625 6.25005Z"/>
<path d="M17.9468 9.37504H15.8101C15.775 9.37505 15.7406 9.36563 15.7104 9.34776C15.6803 9.32989 15.6555 9.30423 15.6387 9.27348L14.0889 6.43315C13.9797 6.22207 13.8223 6.03967 13.6295 5.90071C13.4367 5.76175 13.2139 5.67014 12.9791 5.6333C12.7444 5.59645 12.5042 5.6154 12.2781 5.68862C12.052 5.76183 11.8463 5.88725 11.6777 6.05473L8.2666 9.49223C7.98003 9.78473 7.81736 10.1765 7.8125 10.586C7.8125 11.4356 8.42773 11.7383 8.71582 11.9092C10.1074 12.711 11.0874 13.2974 11.625 13.6231C11.6536 13.6405 11.6772 13.6649 11.6936 13.6941C11.71 13.7233 11.7187 13.7561 11.7188 13.7896V17.1646C11.7188 17.585 12.042 17.9458 12.4624 17.9668C12.568 17.9719 12.6734 17.9555 12.7725 17.9187C12.8715 17.8818 12.962 17.8253 13.0386 17.7524C13.1151 17.6796 13.1761 17.5919 13.2178 17.4949C13.2595 17.3978 13.2811 17.2932 13.2813 17.1875V12.9883C13.2813 12.8643 13.2519 12.742 13.1953 12.6317C13.1388 12.5213 13.0568 12.426 12.9561 12.3536L11.1494 11.0542C11.1267 11.038 11.1078 11.0171 11.0939 10.993C11.0799 10.9688 11.0713 10.942 11.0687 10.9142C11.066 10.8864 11.0693 10.8584 11.0783 10.8321C11.0874 10.8057 11.1019 10.7815 11.1211 10.7613L13.1719 8.57426C13.1929 8.55176 13.219 8.53455 13.2479 8.52404C13.2768 8.51352 13.3079 8.51001 13.3384 8.51377C13.369 8.51753 13.3982 8.52846 13.4238 8.54568C13.4493 8.5629 13.4704 8.58591 13.4854 8.61284L14.5508 10.5357C14.6185 10.6576 14.7176 10.7591 14.8378 10.8298C14.958 10.9005 15.0949 10.9377 15.2344 10.9375H17.9688C18.0746 10.9377 18.1793 10.9163 18.2767 10.8747C18.374 10.8331 18.4618 10.7722 18.5349 10.6956C18.608 10.619 18.6647 10.5284 18.7017 10.4292C18.7387 10.3301 18.7551 10.2244 18.75 10.1187C18.7295 9.69829 18.3672 9.37504 17.9468 9.37504Z"/>
</symbol><symbol id="icon-bus" viewBox="0 0 18 20">
<path d="M4.50106 13.5714C4.50106 13.1771 4.35463 12.8404 4.06179 12.5614C3.76894 12.2824 3.41557 12.1429 3.00168 12.1429C2.58779 12.1429 2.23442 12.2824 1.94158 12.5614C1.64873 12.8404 1.50231 13.1771 1.50231 13.5714C1.50231 13.9658 1.64873 14.3025 1.94158 14.5815C2.23442 14.8605 2.58779 15 3.00168 15C3.41557 15 3.76894 14.8605 4.06179 14.5815C4.35463 14.3025 4.50106 13.9658 4.50106 13.5714ZM16.4961 13.5714C16.4961 13.1771 16.3496 12.8404 16.0568 12.5614C15.7639 12.2824 15.4106 12.1429 14.9967 12.1429C14.5828 12.1429 14.2294 12.2824 13.9366 12.5614C13.6437 12.8404 13.4973 13.1771 13.4973 13.5714C13.4973 13.9658 13.6437 14.3025 13.9366 14.5815C14.2294 14.8605 14.5828 15 14.9967 15C15.4106 15 15.7639 14.8605 16.0568 14.5815C16.3496 14.3025 16.4961 13.9658 16.4961 13.5714ZM15.9572 9.15179L15.1138 4.86607C15.0748 4.69494 14.9869 4.55543 14.8503 4.44754C14.7136 4.33966 14.5555 4.28571 14.3758 4.28571H3.62252C3.4429 4.28571 3.28477 4.33966 3.1481 4.44754C3.01144 4.55543 2.92359 4.69494 2.88454 4.86607L2.04114 9.15179C2.0021 9.375 2.05676 9.57217 2.20514 9.7433C2.35351 9.91443 2.54484 10 2.77912 10H15.2192C15.4535 10 15.6449 9.91443 15.7932 9.7433C15.9416 9.57217 15.9963 9.375 15.9572 9.15179ZM13.3099 2.32143C13.3099 2.17262 13.2552 2.04613 13.1459 1.94196C13.0366 1.8378 12.9038 1.78571 12.7476 1.78571H5.25074C5.09456 1.78571 4.9618 1.8378 4.85247 1.94196C4.74314 2.04613 4.68848 2.17262 4.68848 2.32143C4.68848 2.47024 4.74314 2.59673 4.85247 2.70089C4.9618 2.80506 5.09456 2.85714 5.25074 2.85714H12.7476C12.9038 2.85714 13.0366 2.80506 13.1459 2.70089C13.2552 2.59673 13.3099 2.47024 13.3099 2.32143ZM17.9954 10.4129V17.1429H16.4961V18.5714C16.4961 18.9658 16.3496 19.3025 16.0568 19.5815C15.7639 19.8605 15.4106 20 14.9967 20C14.5828 20 14.2294 19.8605 13.9366 19.5815C13.6437 19.3025 13.4973 18.9658 13.4973 18.5714V17.1429H4.50106V18.5714C4.50106 18.9658 4.35463 19.3025 4.06179 19.5815C3.76894 19.8605 3.41557 20 3.00168 20C2.58779 20 2.23442 19.8605 1.94158 19.5815C1.64873 19.3025 1.50231 18.9658 1.50231 18.5714V17.1429H0.00292969V10.4129C0.00292969 9.57961 0.100545 8.75 0.295776 7.92411L1.50231 2.85714C1.57259 2.27679 1.95329 1.76711 2.64441 1.32812C3.33553 0.889137 4.23359 0.558036 5.3386 0.334821C6.44361 0.111607 7.6638 0 8.99918 0C10.3346 0 11.5548 0.111607 12.6598 0.334821C13.7648 0.558036 14.6628 0.889137 15.354 1.32812C16.0451 1.76711 16.4258 2.27679 16.4961 2.85714L17.726 7.92411C17.9056 8.68304 17.9954 9.51265 17.9954 10.4129Z"/>
</symbol><symbol id="icon-like-fill" viewBox="0 0 20 20">
<path d="M5 1.25C7.7625 1.25 10 3.44375 10 6.15C10 3.44375 12.2375 1.25 15 1.25C17.7625 1.25 20 3.44375 20 6.15C20 10.2288 15.9575 11.6675 10.49 18.16C10.4298 18.2313 10.3548 18.2886 10.2701 18.3279C10.1855 18.3672 10.0933 18.3876 10 18.3876C9.90668 18.3876 9.81449 18.3672 9.72986 18.3279C9.64523 18.2886 9.57019 18.2313 9.51 18.16C4.0425 11.6675 0 10.2288 0 6.15C0 3.44375 2.2375 1.25 5 1.25Z"/>
</symbol><symbol id="icon-like-stroke" viewBox="0 0 20 20">
<g>
<path fill-rule="evenodd" clip-rule="evenodd" d="M10 8.12436L11.1175 5.77557C11.395 5.19396 11.8762 4.35764 12.5575 3.68149C13.2275 3.01585 14.03 2.5629 15 2.5629C17.095 2.5629 18.75 4.30381 18.75 6.39658C18.75 7.9865 18.0575 9.10903 16.415 10.8211C15.9937 11.2596 15.5138 11.7335 14.9825 12.2561C13.5975 13.6215 11.875 15.3204 10 17.5917C8.125 15.3204 6.4025 13.6215 5.0175 12.2561C4.48625 11.7335 4.005 11.2583 3.585 10.8211C1.9425 9.10903 1.25 7.9865 1.25 6.39658C1.25 4.30381 2.905 2.5629 5 2.5629C5.97 2.5629 6.7725 3.01585 7.4425 3.68149C8.12375 4.35764 8.605 5.19396 8.8825 5.77557L10 8.12436ZM10.49 19.0109C10.4298 19.0858 10.3548 19.146 10.2701 19.1873C10.1855 19.2286 10.0933 19.25 10 19.25C9.90668 19.25 9.81449 19.2286 9.72986 19.1873C9.64523 19.146 9.57019 19.0858 9.51 19.0109C7.50875 16.5138 5.6975 14.7283 4.20625 13.2591C1.625 10.7134 0 9.11297 0 6.39658C0 3.55414 2.2375 1.25 5 1.25C7 1.25 8.39875 2.62855 9.255 3.88631C9.58 4.36552 9.8275 4.82635 10 5.18871C10.2162 4.73519 10.4653 4.29978 10.745 3.88631C11.6012 2.62723 13 1.25 15 1.25C17.7625 1.25 20 3.55414 20 6.39658C20 9.11297 18.375 10.7134 15.7938 13.2591C14.3025 14.7296 12.4913 16.5151 10.49 19.0096V19.0109Z"/>
</g>
</symbol><symbol id="icon-mail" viewBox="0 0 24 25">
<path fill-rule="evenodd" clip-rule="evenodd" d="M19.1393 16.4663L14.8089 12.5L19.1393 8.53365L18.5488 7.90264L12.25 13.6719L5.95117 7.90264L5.36066 8.53365L9.69108 12.5L5.36066 16.4663L5.95117 17.0974L10.3308 13.0859L12.25 14.8438L14.1691 13.0859L18.5488 17.0974L19.1393 16.4663ZM4.57593 6.25C3.76692 6.25 3.11108 6.94884 3.11108 7.80786V17.1921C3.11108 18.0525 3.7616 18.75 4.57593 18.75H19.924C20.733 18.75 21.3889 18.0512 21.3889 17.1921V7.80786C21.3889 6.94748 20.7383 6.25 19.924 6.25H4.57593Z"/>
</symbol><symbol id="icon-phone" viewBox="0 0 19 17">
<path fill-rule="evenodd" clip-rule="evenodd" d="M9.49995 1.08615C6.7035 1.08615 3.90033 1.55882 2.88322 2.50093C2.03934 3.28252 1.75804 4.66329 1.66321 5.53753C1.66321 5.53753 1.65015 5.62393 1.65015 5.66109C1.65015 6.00391 1.94445 6.27887 2.30427 6.27887C2.34678 6.27887 3.92002 6.15837 4.86851 6.08425C4.89134 6.08112 4.91434 6.07806 4.93716 6.07191C5.29043 6.0627 5.57505 5.7908 5.57505 5.45413L5.57822 4.237C5.57822 3.86014 5.90214 3.55737 6.3012 3.55737H12.6987C13.0978 3.55737 13.4218 3.86011 13.4218 4.237L13.425 5.45413C13.425 5.7908 13.7095 6.0627 14.0628 6.07191C14.0854 6.0781 14.1085 6.08112 14.1315 6.08425C15.0801 6.15834 16.6533 6.27887 16.6957 6.27887C17.0553 6.27887 17.3499 6.00391 17.3499 5.66109C17.3499 5.62393 17.3368 5.53753 17.3368 5.53753C17.2419 4.66329 16.9609 3.28255 16.117 2.50093C15.0996 1.55882 12.2964 1.08615 9.49995 1.08615ZM9.49995 9.11773C8.7771 9.11773 8.19164 9.67064 8.19164 10.3533C8.19164 11.036 8.7771 11.5889 9.49995 11.5889C10.2228 11.5889 10.8082 11.036 10.8082 10.3533C10.8082 9.67064 10.2228 9.11773 9.49995 9.11773ZM8.51873 6.33752V5.56528C8.51873 5.13902 8.15236 4.79304 7.70106 4.79304C7.24977 4.79304 6.8834 5.13905 6.8834 5.56528V6.33752L2.47095 10.7889C2.16689 11.07 1.97713 11.4622 1.97713 11.8948V13.1335C1.97713 13.8162 2.56264 14.3691 3.28545 14.3691H3.61254V15.1414C3.61254 15.5677 3.97895 15.9136 4.43025 15.9136C4.88154 15.9136 5.24792 15.5677 5.24792 15.1414V14.3691H13.752V15.1414C13.752 15.5677 14.1182 15.9136 14.5697 15.9136C15.021 15.9136 15.3873 15.5677 15.3873 15.1414V14.3691H15.7144C16.4373 14.3691 17.0227 13.8162 17.0227 13.1335V11.8948C17.0227 11.4622 16.833 11.07 16.5289 10.7889L12.1166 6.33752V5.56528C12.1166 5.13902 11.7502 4.79304 11.2989 4.79304C10.8476 4.79304 10.4812 5.13905 10.4812 5.56528V6.33752H8.51873ZM9.49995 7.8821C10.9456 7.8821 12.1166 8.98799 12.1166 10.3533C12.1166 11.7187 10.9457 12.8247 9.49995 12.8247C8.05426 12.8247 6.88336 11.7187 6.88336 10.3533C6.88336 8.98795 8.05426 7.8821 9.49995 7.8821Z"/>
</symbol><symbol id="icon-plane" viewBox="0 0 23 22">
<path d="M18.5347 1.1803C17.7301 1.36073 16.9218 1.542 16.6212 2.03873L14.2941 6.41228L1.79919 9.21442L1.29295 10.6118L10.8544 11.4647L9.23212 15.2509L5.60602 16.0641L4.69562 17.5521L7.31158 17.8201L7.60988 19.0371C7.74352 19.4685 8.21259 19.7565 8.61297 19.6667L9.82168 19.3956L11.2228 21.6492L12.1332 20.1611L11.2383 16.5101L13.8637 13.3536L18.8731 21.6468L19.8832 20.5656L16.8005 7.9887L19.6314 3.93144C19.9358 3.43387 19.7373 2.6238 19.5378 1.80994C19.439 1.40681 18.9351 1.09051 18.5347 1.1803Z"/>
</symbol><symbol id="icon-run" viewBox="0 0 22 24">
<path d="M15.4544 6C16.4586 6 17.2726 5.10457 17.2726 4C17.2726 2.89543 16.4586 2 15.4544 2C14.4503 2 13.6362 2.89543 13.6362 4C13.6362 5.10457 14.4503 6 15.4544 6Z"/>
<path d="M14.3428 10.969C14.5514 11.311 14.8508 11.5742 15.2001 11.7227C15.5495 11.8712 15.9319 11.8978 16.2955 11.799L19.31 10.97L18.8709 9.02997L15.8564 9.85897L14.6027 7.79197C14.3349 7.35053 13.9192 7.04354 13.4464 6.93797L9.95002 6.16797C9.55888 6.08162 9.15277 6.13933 8.79441 6.33217C8.43606 6.52502 8.14539 6.84229 7.9673 7.23497L6.46002 10.551L8.08639 11.446L9.59366 8.12897L11.3818 8.52297L6.7582 17H2.72729V19H6.7582C7.39275 19 7.99002 18.628 8.3173 18.029L10.0609 14.833L14.76 15.867L16.4109 21.316L18.1346 20.683L16.4846 15.235C16.3827 14.9005 16.2026 14.6014 15.9622 14.3679C15.7219 14.1345 15.4298 13.9748 15.1155 13.905L12.3527 13.298L13.9637 10.344L14.3428 10.969Z"/>
</symbol><symbol id="instagram" viewBox="0 0 24 24"><path d="M17.28 2.4a4.33 4.33 0 014.32 4.32v10.56a4.33 4.33 0 01-4.32 4.32H6.72a4.33 4.33 0 01-4.31-4.32V6.72A4.33 4.33 0 016.72 2.4h10.56zm0-1.44H6.72A5.76 5.76 0 00.96 6.72v10.56a5.76 5.76 0 005.76 5.76h10.56a5.76 5.76 0 005.76-5.76V6.72A5.76 5.76 0 0017.28.96z"/><path d="M12.01 7.756a4.253 4.253 0 11-4.254 4.253 4.244 4.244 0 014.253-4.253zm0-1.44a5.693 5.693 0 105.682 5.693 5.681 5.681 0 00-5.683-5.693zM17.904 7.413a1.286 1.286 0 100-2.573 1.286 1.286 0 000 2.573z"/></symbol><symbol id="vk" viewBox="0 0 31 16"><path d="M23.946 15.777a4.05 4.05 0 01-2.08-.63 10.17 10.17 0 01-1.78-1.53c-.44-.44-1.17-1.18-1.45-1.18s-.48.92-.47 1.57a1.75 1.75 0 01-.47 1.21 2.26 2.26 0 01-1.22.5h-1.92a11.32 11.32 0 01-7.43-3c-3.68-3.37-6.84-9.81-6.97-10.09a1.34 1.34 0 01.15-1.48 2.07 2.07 0 011.36-.48h4.2c.338.05.661.169.95.35.272.183.49.435.63.73a22.09 22.09 0 001.48 2.67c1.31 2 1.89 2.46 2.1 2.56.234-.937.298-1.91.19-2.87a2.702 2.702 0 00-.21-1.28 1.33 1.33 0 00-.77-.29l-.73-.69c-.14-.66.59-1.23 1.1-1.45a8.69 8.69 0 013.15-.38h.71a9.11 9.11 0 012.15.2c1.7.36 1.64 1.73 1.57 3.31 0 .46-.05 1-.05 1.62v.48c-.04.436-.009.875.09 1.3a9.09 9.09 0 002.07-2.48 20.396 20.396 0 001.52-2.8 1.58 1.58 0 011.6-.95h4.28a2 2 0 01.38 0c1 0 1.59.29 1.83.85s.17 1.66-2.36 4.61l-1 1.13a7.34 7.34 0 00-1.24 1.59c.379.431.809.814 1.28 1.14 1.15.867 2.16 1.902 3 3.07a1.6 1.6 0 01.26 1.68 2.3 2.3 0 01-1.88 1l-3.79.05-.23-.04zm-5.31-4.84c.9 0 1.68.79 2.51 1.62.448.49.952.926 1.5 1.3a2.51 2.51 0 001.4.42h.1l3.8-.05c.188-.01.371-.058.54-.14l-.1-.16a13.221 13.221 0 00-2.68-2.72c-1.19-1-1.8-1.47-1.87-2.24-.07-.77.49-1.44 1.61-2.71l1-1.11a10.731 10.731 0 002.05-2.95 5.66 5.66 0 00-.67 0h-4.37a.55.55 0 00-.24 0 20.507 20.507 0 01-1.65 3.05c-1.89 2.82-2.78 3.2-3.41 3.2a1.19 1.19 0 01-.56-.14c-1-.57-1-1.84-.94-2.76v-.43c0-.65 0-1.21.05-1.69.08-1.68 0-1.69-.38-1.78a8.561 8.561 0 00-1.86-.16h-.69a13 13 0 00-1.9.1c.096.07.18.155.25.25.413.65.618 1.41.59 2.18.13 1.65.06 3.8-1 4.32a1.38 1.38 0 01-.6.13c-.93 0-1.85-.88-3.42-3.26a23.42 23.42 0 01-1.61-2.85l-.08-.1a1.21 1.21 0 00-.32-.11h-4.07c.59 1.22 3.39 6.62 6.52 9.45a10 10 0 006.42 2.63h1.85a.999.999 0 00.27-.1v-.09c0-.27 0-2.6 1.58-3 .122-.048.25-.081.38-.1z"/></symbol></svg>